# xmcd
#
# Track frame offsets:
#	182
#	7552
#	25205
#	42955
#	60095
#	76495
#	81472
#	98177
#	110190
#	116790
#	131502
#	150047
#	162315
#	178722
#	194302
#	198495
#
# Disc length: 3052 seconds
#
# Revision: 4
# Processed by: cddbd v1.5.2PL0 Copyright (c) Steve Scherf et al.
# Submitted via: audiograbber 1.83.01
#
DISCID=c30bea10
DTITLE=Def Squad - El Nino
DYEAR=1998
DGENRE=Rap
TTITLE0=Def Squad - Shower (Intro)
TTITLE1=Def Squad - Check N' Me Out
TTITLE2=Def Squad, Jamal - Countdown 
TTITLE3=Def Squad - Full Cooperation
TTITLE4=Def Squad - (Siminila) WDEF (Skit)
TTITLE5=Def Squad, Too Short - Ride Wit' Us 
TTITLE6=Def Squad, Biz Markie - Rhymin' Wit' Biz 
TTITLE7=Def Squad - The Game
TTITLE8=Def Squad - World Announcement (Skit)
TTITLE9=Def Squad - Can U Dig It
TTITLE10=Def Squad - You Do, I Do
TTITLE11=Def Squad - Ya'll Niggas Ain't Ready
TTITLE12=Def Squad - Say Word
TTITLE13=Def Squad - No Guest List
TTITLE14=Def Squad - President of Babies Father (Skit)
TTITLE15=Def Squad - Def Squad Delite
EXTD=www.RapMusicGuide.com
EXTT0=
EXTT1=
EXTT2=
EXTT3=
EXTT4=
EXTT5=
EXTT6=
EXTT7=
EXTT8=
EXTT9=
EXTT10=
EXTT11=
EXTT12=
EXTT13=
EXTT14=
EXTT15=
PLAYORDER=
